P3
# CREATOR: GIMP PNM Filter Version 1.1
29 11
255
255
0
255
255
0
255
255
0
255
255
0
255
255
0
255
255
0
255
138
114
104
222
222
207
193
179
164
138
114
104
255
0
255
255
0
255
255
0
255
255
0
255
255
0
255
255
0
255
255
0
255
255
0
255
255
0
255
255
0
255
255
0
255
255
0
255
255
0
255
255
0
255
255
0
255
255
0
255
255
0
255
255
0
255
255
0
255
255
0
255
255
0
255
255
0
255
255
0
255
255
0
255
255
0
255
255
0
255
138
114
104
222
222
207
222
222
207
193
179
164
138
114
104
255
0
255
255
0
255
255
0
255
255
0
255
255
0
255
255
0
255
255
0
255
255
0
255
255
0
255
255
0
255
255
0
255
255
0
255
255
0
255
255
0
255
255
0
255
255
0
255
255
0
255
255
0
255
255
0
255
255
0
255
255
0
255
255
0
255
255
0
255
255
0
255
255
0
255
138
114
104
222
222
207
222
222
207
222
222
207
193
179
164
138
114
104
255
0
255
255
0
255
255
0
255
255
0
255
255
0
255
255
0
255
255
0
255
255
0
255
255
0
255
255
0
255
255
0
255
255
0
255
255
0
255
255
0
255
255
0
255
255
0
255
255
0
255
255
0
255
255
0
255
255
0
255
255
0
255
255
0
255
255
0
255
255
0
255
138
114
104
222
222
207
222
222
207
222
222
207
222
222
207
193
179
164
164
138
127
255
0
255
255
0
255
255
0
255
255
0
255
255
0
255
255
0
255
255
0
255
255
0
255
255
0
255
255
0
255
255
0
255
255
0
255
255
0
255
255
0
255
255
0
255
255
0
255
255
0
255
255
0
255
255
0
255
255
0
255
255
0
255
255
0
255
255
255
255
255
255
255
255
255
255
255
255
255
255
255
255
255
255
255
255
255
255
193
179
164
0
0
0
239
222
179
255
255
255
222
179
138
193
127
84
164
66
53
255
0
255
255
0
255
255
0
255
255
0
255
255
0
255
255
0
255
255
0
255
255
0
255
255
0
255
255
0
255
45
138
207
164
222
255
0
0
0
255
255
255
0
0
0
222
222
207
222
222
207
222
222
207
222
222
207
222
222
207
222
222
207
222
222
207
222
222
207
193
179
164
0
0
0
239
222
179
239
222
179
222
179
138
222
179
138
193
127
84
164
66
53
255
0
255
255
0
255
255
0
255
255
0
255
255
0
255
255
0
255
255
0
255
45
138
207
164
222
255
222
255
255
0
0
0
222
222
207
0
0
0
84
127
193
0
0
0
222
222
207
222
222
207
222
222
207
222
222
207
222
222
207
222
222
207
222
222
207
222
222
207
222
222
207
222
222
207
222
222
207
222
222
207
222
222
207
255
255
255
255
255
255
255
255
255
222
222
207
193
179
164
255
0
255
255
0
255
255
0
255
255
0
255
45
138
207
164
222
255
0
0
0
164
138
127
0
0
0
179
222
255
255
255
255
0
0
0
193
179
164
193
179
164
193
179
164
193
179
164
193
179
164
193
179
164
193
179
164
193
179
164
193
179
164
164
138
127
255
255
255
255
255
255
193
179
164
127
104
94
127
104
94
127
104
94
94
74
66
255
0
255
255
0
255
255
0
255
255
0
255
255
0
255
255
0
255
255
0
255
255
0
255
255
0
255
84
127
193
179
222
255
255
255
255
0
0
0
222
222
207
222
222
207
222
222
207
222
222
207
222
222
207
222
222
207
255
255
255
255
255
255
138
114
104
164
138
127
127
104
94
127
104
94
255
0
255
255
0
255
255
0
255
255
0
255
255
0
255
255
0
255
255
0
255
255
0
255
255
0
255
255
0
255
255
0
255
255
0
255
255
0
255
255
0
255
84
127
193
84
127
193
84
127
193
138
114
104
255
255
255
255
255
255
255
255
255
255
255
255
193
179
164
164
138
127
138
114
104
255
0
255
255
0
255
255
0
255
255
0
255
255
0
255
255
0
255
255
0
255
255
0
255
255
0
255
255
0
255
255
0
255
255
0
255
255
0
255
255
0
255
255
0
255
255
0
255
255
0
255
255
0
255
255
0
255
255
0
255
255
0
255
255
0
255
138
114
104
164
138
127
164
138
127
138
114
104
255
0
255
255
0
255
255
0
255
255
0
255
255
0
255
255
0
255
255
0
255
255
0
255
255
0
255
255
0
255
255
0
255
